Coordinates
version=1
nRows=32
nColumns=22
inDegrees=yes

Units are S.I. units (second, meters, Newtons, ...)
If the header above contains a line with 'inDegrees', this indicates whether rotational values are in degrees (yes) or radians (no).

endheader
time	pelvis_tilt	pelvis_list	pelvis_rotation	pelvis_tx	pelvis_ty	pelvis_tz	hip_flexion_r	hip_adduction_r	hip_rotation_r	knee_angle_r	ankle_angle_r	subtalar_angle_r	hip_flexion_l	hip_adduction_l	hip_rotation_l	knee_angle_l	ankle_angle_l	subtalar_angle_l	lumbar_extension	lumbar_bending	lumbar_rotation
      2.76000000	     -2.84845754	     -3.91243175	     -0.93885941	      0.00056121	      1.00686185	      0.22299781	     19.39739739	      2.93410401	     -2.47485188	    -20.96155433	      2.33223833	      1.46996267	      4.80103542	     -9.60270666	     -5.68081679	    -44.37761355	      8.38849507	     11.11159616	     -1.43764324	      0.57832966	     -3.62865039
      2.77000000	     -2.96906635	     -4.00400057	     -0.73919392	     -0.00666475	      1.00541067	      0.22032539	     20.08107624	      2.82035638	     -2.62387363	    -21.16260735	      2.03159413	      1.48197187	      3.91682852	     -9.48237457	     -5.38160872	    -43.21686435	      8.09601566	     11.10472979	     -1.33633791	      0.74412583	     -3.96936444
      2.78000000	     -3.09104714	     -4.09742511	     -0.51199072	     -0.01409231	      1.00389377	      0.21749929	     20.77307611	      2.68276618	     -2.81321106	    -21.35711499	      1.74203997	      1.51305552	      3.05618935	     -9.34324164	     -5.03103791	    -41.94687516	      7.82603492	     11.03114712	     -1.25577387	      0.90686545	     -4.31187945
      2.79000000	     -3.23173981	     -4.19698111	     -0.26091800	     -0.02170395	      1.00230779	      0.21453525	     21.47099597	      2.52799733	     -3.02224042	    -21.51086475	      1.46544473	      1.58552561	      2.24019733	     -9.19618388	     -4.64462755	    -40.56342140	      7.62895246	     10.93654187	     -1.17002866	      1.07308899	     -4.66021881
      2.80000000	     -3.37592227	     -4.30612707	      0.00200371	     -0.02953678	      1.00065618	      0.21144766	     22.17532352	      2.35792314	     -3.26935019	    -21.65011424	      1.22359287	      1.71762739	      1.45657517	     -9.04764539	     -4.24532638	    -39.06992885	      7.58259385	     10.79620452	     -1.10456630	      1.24383445	     -4.98276226
      2.81000000	     -3.53753124	     -4.42288931	      0.27415811	     -0.03756880	      0.99894273	      0.20823622	     22.87974427	      2.17334384	     -3.53116084	    -21.74052607	      1.02253948	      1.90193776	      0.72865669	     -8.90648165	     -3.87526277	    -37.47348252	      7.74634296	     10.67331236	     -1.03888222	      1.42259806	     -5.29783634
      2.82000000	     -3.71062416	     -4.54840136	      0.53898310	     -0.04582929	      0.99718066	      0.20495653	     23.58458675	      1.98354196	     -3.80011383	    -21.78813037	      0.87010454	      2.14541000	      0.05841248	     -8.78226451	     -3.58308434	    -35.78832791	      8.19465860	     10.55349700	     -0.98668458	      1.60281539	     -5.57745502
      2.83000000	     -3.89377870	     -4.68050319	      0.78636813	     -0.05431145	      0.99539484	      0.20162235	     24.28201215	      1.79223910	     -4.06073184	    -21.78319740	      0.78538866	      2.47350269	     -0.54252005	     -8.67569232	     -3.40547543	    -34.03918700	      8.93627730	     10.43131981	     -0.95209137	      1.78378679	     -5.80351488
      2.84000000	     -4.09187100	     -4.80550382	      0.99280809	     -0.06301572	      0.99361280	      0.19829473	     24.97231301	      1.60328085	     -4.27071731	    -21.71312068	      0.74043463	      2.83602873	     -1.05603816	     -8.57783609	     -3.40650225	    -32.26126249	      9.96748122	     10.30972832	     -0.93139903	      1.94716610	     -5.96218780
      2.85000000	     -4.29727252	     -4.90112781	      1.16307185	     -0.07192202	      0.99188142	      0.19498841	     25.63290416	      1.40056974	     -4.42154460	    -21.55555672	      0.76934501	      3.10920078	     -1.46948599	     -8.46720782	     -3.61384626	    -30.50239031	     11.21926607	     10.16007989	     -0.93482985	      2.06484233	     -6.07879918
      2.86000000	     -4.50205969	     -4.95387663	      1.27922019	     -0.08102976	      0.99026109	      0.19173198	     26.26413139	      1.18117213	     -4.48860234	    -21.32685519	      0.86148716	      3.44674613	     -1.78793910	     -8.31238074	     -3.99090794	    -28.79277818	     12.55842668	      9.92631978	     -0.97486191	      2.12128456	     -6.10752031
      2.87000000	     -4.70045773	     -4.94126915	      1.35378683	     -0.09032321	      0.98880542	      0.18853089	     26.84720447	      0.92526776	     -4.46917921	    -21.00626222	      1.01180025	      3.75288238	     -2.00112404	     -8.08880957	     -4.51103658	    -27.18189685	     13.88765203	      9.61053477	     -1.05894215	      2.09006140	     -6.08991231
      2.88000000	     -4.88615940	     -4.85840532	      1.38063179	     -0.09976202	      0.98755029	      0.18545074	     27.36405885	      0.64012266	     -4.34512116	    -20.57988181	      1.26778129	      4.01593341	     -2.11018265	     -7.79478381	     -5.15862724	    -25.70959987	     15.13061244	      9.23102792	     -1.18755523	      1.95841591	     -6.02300499
      2.89000000	     -5.05805164	     -4.69765291	      1.36330838	     -0.10933052	      0.98653143	      0.18246558	     27.81041047	      0.31431926	     -4.13080975	    -20.04180120	      1.60222376	      4.29459581	     -2.12183072	     -7.41122873	     -5.84530339	    -24.38915062	     16.22411768	      8.77243337	     -1.36194237	      1.72634351	     -5.89723198
      2.90000000	     -5.20663617	     -4.47295823	      1.32331141	     -0.11901025	      0.98575805	      0.17960029	     28.18207439	     -0.04440566	     -3.84238047	    -19.41285383	      2.01817832	      4.61761202	     -2.04515226	     -6.96051917	     -6.51874359	    -23.23023397	     17.15635720	      8.21801672	     -1.58662131	      1.40436333	     -5.78055248
      2.91000000	     -5.32947069	     -4.19482799	      1.24798521	     -0.12872130	      0.98523649	      0.17689266	     28.46450578	     -0.42200624	     -3.51789245	    -18.67457994	      2.50263156	      4.91393114	     -1.90603292	     -6.45591355	     -7.15644608	    -22.21873974	     17.90158796	      7.66509326	     -1.85260981	      1.00748167	     -5.62013402
      2.92000000	     -5.41718863	     -3.87563037	      1.14828127	     -0.13841326	      0.98496076	      0.17434964	     28.65203250	     -0.81266616	     -3.18516450	    -17.84763688	      3.01954784	      5.15676673	     -1.73067403	     -5.91366422	     -7.72835122	    -21.33082867	     18.48169776	      7.17678277	     -2.15925875	      0.54684387	     -5.44049299
      2.93000000	     -5.47236440	     -3.53809402	      1.04791627	     -0.14803937	      0.98488834	      0.17186957	     28.75705760	     -1.22265412	     -2.95621412	    -16.96478141	      3.54082567	      5.45936601	     -1.51731706	     -5.35317116	     -8.19428644	    -20.57095401	     18.93417001	      6.64620401	     -2.49500079	      0.06908919	     -5.26808289
      2.94000000	     -5.49781136	     -3.21075976	      0.96451820	     -0.15754039	      0.98499310	      0.16945034	     28.78460831	     -1.63316183	     -2.87908659	    -16.05312159	      4.00490320	      5.82309746	     -1.27346959	     -4.80815751	     -8.53821422	    -19.92343064	     19.27713758	      6.09245880	     -2.84480147	     -0.39466185	     -5.11151281
      2.95000000	     -5.49367369	     -2.90547270	      0.88809809	     -0.16684423	      0.98524803	      0.16708265	     28.76106416	     -2.03517792	     -3.03289244	    -15.18617636	      4.38852692	      6.22489000	     -1.01695616	     -4.28954386	     -8.79073441	    -19.36930638	     19.51736717	      5.54503338	     -3.19690197	     -0.82092293	     -4.96325051
      2.96000000	     -5.46533770	     -2.63826765	      0.83525942	     -0.17592111	      0.98562956	      0.16475713	     28.71430873	     -2.42134980	     -3.47064908	    -14.43655870	      4.65602387	      6.65644729	     -0.74429548	     -3.81859697	     -8.97522065	    -18.90453077	     19.69815834	      5.00106380	     -3.54145868	     -1.19534415	     -4.81703415
      2.97000000	     -5.41707932	     -2.40528154	      0.79922691	     -0.18473381	      0.98612883	      0.16244748	     28.67661418	     -2.79587342	     -4.20608258	    -13.88827491	      4.82092391	      7.04509970	     -0.46556095	     -3.38467245	     -9.10781740	    -18.50835493	     19.82726248	      4.51303820	     -3.87041525	     -1.51316825	     -4.66877706
      2.98000000	     -5.36317842	     -2.22937210	      0.74757015	     -0.19328003	      0.98674452	      0.16026760	     28.67746474	     -3.11692448	     -5.18155067	    -13.58420798	      4.86095105	      7.48778561	     -0.16952674	     -3.01824544	     -9.23920074	    -18.18421829	     19.86520253	      3.93578726	     -4.16508887	     -1.76198022	     -4.46685985
      2.99000000	     -5.29722408	     -2.07949299	      0.71451953	     -0.20156541	      0.98749396	      0.15813441	     28.71152113	     -3.43377922	     -6.32638322	    -13.56146935	      4.85867415	      7.81078640	      0.13713954	     -2.68227112	     -9.34099072	    -17.92202022	     19.84381414	      3.42617034	     -4.43970930	     -1.96928995	     -4.27018966
      3.00000000	     -5.22978699	     -1.96305167	      0.69134121	     -0.20957138	      0.98838334	      0.15609241	     28.78023553	     -3.73575826	     -7.54734753	    -13.81839519	      4.83816578	      8.01398181	      0.44860921	     -2.38492482	     -9.40450815	    -17.69372602	     19.75651643	      2.98914186	     -4.67773129	     -2.13302087	     -4.07150561
      3.01000000	     -5.16382040	     -1.87085666	      0.65724868	     -0.21736572	      0.98941266	      0.15422018	     28.87626088	     -4.01820370	     -8.69456811	    -14.32952759	      4.79150035	      8.15822872	      0.78778937	     -2.12917179	     -9.49324752	    -17.53529717	     19.57546873	      2.47325338	     -4.88853975	     -2.27799368	     -3.85040653
      3.02000000	     -5.08737782	     -1.80185253	      0.63350312	     -0.22494183	      0.99060017	      0.15247375	     28.97634279	     -4.29087949	     -9.71310611	    -15.08748880	      4.78937559	      8.16080660	      1.12128758	     -1.90656481	     -9.51641632	    -17.40614088	     19.33415723	      2.13382382	     -5.08685577	     -2.39830213	     -3.63351481
      3.03000000	     -5.01958966	     -1.74473688	      0.60772272	     -0.23233913	      0.99190785	      0.15086931	     29.07813876	     -4.55100675	    -10.51316361	    -16.02989676	      4.78470167	      8.07721040	      1.48202098	     -1.71208722	     -9.53411528	    -17.32807053	     19.01383951	      1.76092583	     -5.25151430	     -2.50702335	     -3.43045560
      3.04000000	     -4.92693488	     -1.70814870	      0.59205474	     -0.23956757	      0.99337740	      0.14944554	     29.12945815	     -4.78319477	    -11.08904087	    -17.11950009	      4.83355787	      7.93447769	      1.83065964	     -1.56179884	     -9.53007889	    -17.29186319	     18.63732523	      1.56195464	     -5.42770235	     -2.60803727	     -3.24081826
      3.05000000	     -4.86205595	     -1.68447155	      0.57532503	     -0.24664123	      0.99490151	      0.14816659	     29.19412218	     -4.98751071	    -11.41259984	    -18.34501870	      4.84875402	      7.69897159	      2.20115061	     -1.43659443	     -9.49481723	    -17.25420046	     18.22616097	      1.32413264	     -5.54725835	     -2.69558856	     -3.08166614
      3.06000000	     -4.77513499	     -1.67954486	      0.58043293	     -0.25357888	      0.99653998	      0.14700803	     29.19612090	     -5.15745249	    -11.51639233	    -19.65250732	      4.91262140	      7.45926110	      2.55604010	     -1.34796178	     -9.44501797	    -17.24075112	     17.77196631	      1.21598531	     -5.67615342	     -2.76438571	     -2.96419105
      3.07000000	     -4.68085020	     -1.69727365	      0.60972129	     -0.26039754	      0.99825031	      0.14598174	     29.14991124	     -5.28232046	    -11.41412800	    -21.02000427	      5.00648318	      7.23779737	      2.89939452	     -1.29679576	     -9.37693473	    -17.22576103	     17.28640278	      1.17923711	     -5.79963986	     -2.81488671	     -2.89474800
